<svg xmlns="http://www.w3.org/2000/svg" viewBox="0 0 32 32">
  <rect width="32" height="32" rx="7" fill="#0c0f12"/>
  <rect x="2.5" y="2.5" width="27" height="27" rx="6" fill="#141a1f"/>
  <!-- left hand, teal -->
  <g fill="#3dbeb6">
    <rect x="6.2" y="13.2" width="2.15" height="7.2" rx="1.05"/>
    <rect x="8.7" y="11.4" width="2.15" height="9" rx="1.05"/>
    <rect x="11.2" y="10.6" width="2.15" height="9.8" rx="1.05"/>
    <rect x="13.7" y="12.2" width="2.15" height="8.2" rx="1.05"/>
    <path d="M7.1 19.6c0-1.2 1.1-2.1 2.6-2.1h5.4c1.6 0 2.5 1 2.5 2.3v3.4c0 2.4-2.1 4.1-5.2 4.1s-5.3-1.6-5.3-4z"/>
  </g>
  <!-- right hand, coral -->
  <g fill="#e07a5f">
    <rect x="16.15" y="12.2" width="2.15" height="8.2" rx="1.05"/>
    <rect x="18.65" y="10.6" width="2.15" height="9.8" rx="1.05"/>
    <rect x="21.15" y="11.4" width="2.15" height="9" rx="1.05"/>
    <rect x="23.65" y="13.2" width="2.15" height="7.2" rx="1.05"/>
    <path d="M14.4 22.8c0-1.3.9-2.3 2.5-2.3h5.4c1.5 0 2.6.9 2.6 2.1v3.6c0 2.4-2.2 4-5.3 4s-5.2-1.7-5.2-4.1z"/>
  </g>
  <!-- amber pointer ray -->
  <path d="M15.2 8.2 L16.8 8.2 L16.15 15.4 Z" fill="#e59a4a"/>
  <circle cx="16" cy="16.1" r="1.15" fill="#e59a4a"/>
</svg>
